<svg width="64" height="64" viewBox="0 0 64 64" fill="none" xmlns="http://www.w3.org/2000/svg">
<g clip-path="url(#clip0_407_707)">
<path d="M31.726 0.146057C15.5195 0.146057 16.5315 7.17415 16.5315 7.17415L16.5495 14.4555H32.015V16.6415H10.4068C10.4068 16.6415 0.0362549 15.4654 0.0362549 31.8176C0.0362549 48.1703 9.0879 47.5903 9.0879 47.5903H14.4899V40.0021C14.4899 40.0021 14.1987 30.9504 23.3971 30.9504H38.7361C38.7361 30.9504 47.354 31.0896 47.354 22.6214V8.61976C47.354 8.61976 48.6629 0.146057 31.726 0.146057ZM23.1983 5.0426C23.5638 5.04227 23.9257 5.11401 24.2634 5.25371C24.6011 5.39342 24.908 5.59834 25.1664 5.85676C25.4248 6.11518 25.6297 6.42202 25.7694 6.75973C25.9092 7.09743 25.9809 7.45937 25.9806 7.82483C25.9809 8.1903 25.9092 8.55224 25.7694 8.88994C25.6297 9.22765 25.4248 9.53449 25.1664 9.79291C24.908 10.0513 24.6011 10.2563 24.2634 10.396C23.9257 10.5357 23.5638 10.6074 23.1983 10.6071C22.8329 10.6074 22.4709 10.5357 22.1332 10.396C21.7955 10.2563 21.4887 10.0513 21.2303 9.79291C20.9718 9.53449 20.7669 9.22765 20.6272 8.88994C20.4875 8.55224 20.4158 8.1903 20.4161 7.82483C20.4158 7.45937 20.4875 7.09743 20.6272 6.75973C20.7669 6.42202 20.9718 6.11518 21.2303 5.85676C21.4887 5.59834 21.7955 5.39342 22.1332 5.25371C22.4709 5.11401 22.8329 5.04227 23.1983 5.0426Z" fill="url(#paint0_linear_407_707)"/>
<path d="M32.1862 63.6536C48.3927 63.6536 47.3808 56.6255 47.3808 56.6255L47.3628 49.3444H31.897V47.1584H53.5052C53.5052 47.1584 63.8757 48.3345 63.8757 31.9818C63.8757 15.6293 54.8241 16.2093 54.8241 16.2093H49.4221V23.7973C49.4221 23.7973 49.7133 32.849 40.5149 32.849H25.1759C25.1759 32.849 16.5579 32.7097 16.5579 41.1782V55.1801C16.5579 55.1801 15.2493 63.6536 32.186 63.6536H32.1862ZM40.7139 58.7575C40.3484 58.7578 39.9865 58.6861 39.6488 58.5464C39.3111 58.4067 39.0043 58.2018 38.7458 57.9433C38.4874 57.6849 38.2825 57.3781 38.1428 57.0404C38.0031 56.7027 37.9313 56.3407 37.9317 55.9753C37.9313 55.6098 38.003 55.2478 38.1427 54.9101C38.2824 54.5724 38.4873 54.2655 38.7457 54.007C39.0042 53.7486 39.311 53.5436 39.6487 53.4039C39.9865 53.2642 40.3484 53.1925 40.7139 53.1928C41.0794 53.1925 41.4413 53.2642 41.779 53.4039C42.1167 53.5436 42.4236 53.7485 42.682 54.007C42.9404 54.2654 43.1453 54.5722 43.285 54.9099C43.4247 55.2476 43.4965 55.6096 43.4961 55.975C43.4965 56.3405 43.4247 56.7024 43.285 57.0401C43.1453 57.3778 42.9404 57.6847 42.682 57.9431C42.4236 58.2015 42.1167 58.4064 41.779 58.5461C41.4413 58.6859 41.0794 58.7578 40.7139 58.7575Z" fill="url(#paint1_linear_407_707)"/>
</g>
<defs>
<linearGradient id="paint0_linear_407_707" x1="613.532" y1="571.358" x2="3777.22" y2="3703.49" gradientUnits="userSpaceOnUse">
<stop stop-color="#387EB8"/>
<stop offset="1" stop-color="#366994"/>
</linearGradient>
<linearGradient id="paint1_linear_407_707" x1="922.078" y1="992.615" x2="4319.52" y2="4204.32" gradientUnits="userSpaceOnUse">
<stop stop-color="#FFE052"/>
<stop offset="1" stop-color="#FFC331"/>
</linearGradient>
<clipPath id="clip0_407_707">
<rect width="64" height="63.744" fill="white" transform="translate(0 0.128052)"/>
</clipPath>
</defs>
</svg>
