<svg width="56" height="65" viewBox="0 0 56 65" fill="none" xmlns="http://www.w3.org/2000/svg">
<path d="M54.282 20.6753C54.3022 19.7581 54.0812 18.8517 53.6412 18.0466C53.1851 17.2685 52.5276 16.6277 51.738 16.1918C44.7379 12.1501 37.7355 8.11406 30.7306 4.08364C28.8444 2.993 27.0162 3.03169 25.142 4.13926C22.3562 5.77642 8.40526 13.7784 4.24827 16.1894C2.53615 17.1809 1.70427 18.6996 1.70427 20.6729V45.0489C1.6866 45.9467 1.89888 46.8341 2.32092 47.6268C2.77719 48.4286 3.44687 49.0883 4.25553 49.5323C8.41251 51.9506 22.3658 59.9429 25.1517 61.5874C27.0258 62.6949 28.854 62.7336 30.7427 61.643C37.7411 57.5996 44.7436 53.562 51.7501 49.5299C52.5587 49.0858 53.2284 48.4262 53.6847 47.6243C54.1067 46.8317 54.319 45.9443 54.3013 45.0465V20.6753H54.282Z" fill="#004482"/>
<path d="M54.2869 45.0489C54.3051 45.9468 54.0928 46.8343 53.6702 47.6267C53.5665 47.8155 53.4493 47.9965 53.3196 48.1684L27.9932 32.8609L51.738 16.1918C52.5269 16.6279 53.1836 17.2687 53.6388 18.0466C54.0807 18.851 54.3026 19.7577 54.282 20.6753C54.2869 28.8006 54.2869 45.0489 54.2869 45.0489Z" fill="#00599C"/>
<path d="M53.6388 18.0466L2.31368 47.6267C1.89351 46.8345 1.6829 45.9479 1.70186 45.0513V20.6729C1.70186 18.6996 2.53616 17.1809 4.24586 16.1894C8.40527 13.7784 22.3562 5.7764 25.1444 4.1344C27.0137 3.02684 28.8444 2.98815 30.7306 4.07878C37.729 8.12211 44.7315 12.1598 51.738 16.1918C52.5269 16.6279 53.1835 17.2687 53.6388 18.0466Z" fill="#659AD2"/>
<path d="M29.0088 42.708C27.2806 42.7104 25.5834 42.2487 24.0945 41.3712C22.6057 40.4936 21.3798 39.2324 20.5449 37.7192C20.4594 37.5676 20.3788 37.4128 20.3031 37.2548C19.273 35.1274 19.0588 32.696 19.701 30.4212C20.3433 28.1464 21.7975 26.1861 23.7881 24.9116C25.7788 23.637 28.1677 23.1367 30.5026 23.5054C32.8374 23.874 34.9559 25.0861 36.457 26.912C36.5852 27.0667 36.6988 27.2288 36.827 27.3956C36.8851 27.4754 36.9431 27.5552 36.9963 27.6374L45.4771 22.7526C45.2708 22.4205 45.0547 22.098 44.829 21.7853C44.7105 21.6184 44.5872 21.4588 44.4711 21.3016C41.5234 17.4722 37.2477 14.8865 32.4874 14.0543C27.7271 13.2221 22.8278 14.2039 18.7557 16.8061C14.6837 19.4083 11.7345 23.4419 10.49 28.1114C9.24543 32.7809 9.79584 37.7472 12.0326 42.0309C12.1149 42.1857 12.1995 42.338 12.2745 42.4904C13.9172 45.3888 16.2814 47.8133 19.1376 49.5284C21.9937 51.2436 25.2448 52.1913 28.5752 52.2793C31.9057 52.3674 35.2023 51.593 38.1451 50.0312C41.088 48.4694 43.577 46.1733 45.3707 43.3658L37.0785 38.3527C36.2006 39.6914 35.0032 40.7905 33.5944 41.5509C32.1856 42.3112 30.6097 42.7089 29.0088 42.708Z" fill="white"/>
</svg>
