<svg width="100" height="25" viewBox="0 0 100 25" fill="none" xmlns="http://www.w3.org/2000/svg">
<g clip-path="url(#clip0_412_735)">
<path d="M14.1542 4.10198L0.576599 3.34679L9.42536 12.8361L14.1542 4.10198ZM7.36144 3.08979L13.6244 3.53657L5.86293 0.5L7.36144 3.08979ZM15.202 3.53657L18.539 0.5L20.7888 3.72636L15.202 3.53657ZM14.8264 4.13756L9.91169 13.2117L14.3756 18.1224L19.397 13.4371L20.7848 4.43806L14.8264 4.13756ZM10.1766 14.6351L7.81218 24.5L13.9605 18.6483L10.1766 14.6351ZM19.2507 0.650247L21.6507 3.72636L32.7888 0.650247H19.2507Z" fill="#29B2FE"/>
<path d="M29.685 6.23706C29.6889 7.00016 29.6415 7.7593 29.5427 8.51449C28.7558 8.54217 27.7713 8.25749 27.799 9.60971C29.0089 9.58204 29.3331 9.60971 29.3331 9.60971C29.3331 9.60971 29.2777 12.0018 27.4748 11.9109C26.8263 15.5682 26.2095 18.7748 26.2095 18.7748H23.3232L24.8969 8.54612C24.8969 8.54612 25.2606 6.46638 27.1466 6.24497L29.685 6.23706ZM28.4198 18.7827L29.938 9.4476H32.5832L32.7888 10.1514C32.7888 10.1514 33.453 9.22223 35.4497 9.4476C34.9713 11.725 34.8883 12.0651 34.8883 12.0651C34.8883 12.0651 32.6939 11.8397 32.5239 12.5435C32.3539 13.2473 31.484 18.7866 31.484 18.7866L28.4198 18.7827ZM51.8464 11.132C51.2573 10.0644 50.1858 9.0878 47.6553 9.40807C45.1249 9.72833 43.31 12.2193 43.4366 15.5998C43.6936 18.411 45.6903 18.9092 46.3901 19.0041C51.1426 19.5656 51.202 17.0904 51.2296 16.1613C50.2451 16.1613 49.7825 16.181 49.3713 16.189C49.2527 16.5764 47.3272 16.3866 47.3272 16.3866C47.3272 16.3866 46.5957 16.3313 46.5403 15.0384H51.8583C51.8543 15.0384 52.4395 12.2035 51.8464 11.132ZM49.1183 13.4094C48.5845 13.4647 46.7855 13.4094 46.7855 13.4094C47.4893 10.6259 49.4267 11.8357 49.1183 13.4094ZM89.1947 11.132C88.6056 10.0644 87.5341 9.0878 85.0036 9.40807C82.4731 9.72833 80.6583 12.2193 80.7848 15.5998C81.0418 18.411 83.0385 18.9092 83.7384 19.0041C88.4909 19.5656 88.5502 17.0904 88.5779 16.1613C87.5934 16.1613 87.1308 16.181 86.7196 16.189C86.601 16.5764 84.6754 16.3866 84.6754 16.3866C84.6754 16.3866 83.944 16.3313 83.8886 15.0384H89.1987C89.1947 15.0384 89.772 12.2035 89.1947 11.132ZM86.4665 13.4094C85.9328 13.4647 84.1338 13.4094 84.1338 13.4094C84.8257 10.6259 86.767 11.8357 86.4547 13.4094H86.4665Z" fill="black"/>
<path d="M43.1677 11.1319C42.5786 10.0644 41.5071 9.08777 38.9766 9.40804C36.4461 9.7283 34.6313 12.2192 34.7578 15.5998C35.0148 18.411 37.0115 18.9092 37.7114 19.0041C42.4639 19.5655 42.5232 17.0904 42.5509 16.1612C41.5664 16.1612 41.1038 16.181 40.6926 16.1889C40.574 16.5764 38.6484 16.3866 38.6484 16.3866C38.6484 16.3866 37.917 16.3313 37.8616 15.0383H43.1717C43.1677 15.0383 43.7608 12.2034 43.1677 11.1319ZM40.4356 13.4094C39.9018 13.4647 38.1028 13.4094 38.1028 13.4094C38.8184 10.6258 40.7479 11.8357 40.4356 13.4094ZM53.8432 6.4624L51.9018 18.7787H54.9977L57.0774 6.4624H53.8432ZM64.2221 18.7827L65.7957 9.41199H68.5516V10.1276C68.5516 10.1276 69.5084 9.08777 72.0389 9.41199C74.5693 9.73225 73.3041 14.2278 73.3041 14.2278L72.628 18.7906H69.5914C69.5914 18.7906 70.2952 14.1883 70.4336 12.9665C70.2913 11.5866 68.6623 11.6459 68.2669 12.6304C68.0692 13.8403 67.1717 18.7906 67.1717 18.7906L64.2221 18.7827ZM77.9183 12.0888H80.7018L80.9588 10.2621C80.9588 10.2621 81.2949 9.4199 80.1166 9.40408C78.9384 9.38827 77.1631 9.40408 77.1631 9.40408C77.1631 9.40408 73.7034 9.89436 73.9011 16.6753C74.083 17.8851 75.0043 18.8538 76.2023 19.0911C76.4593 19.1464 78.2464 19.0911 78.2464 19.0911C78.2464 19.0911 80.2432 18.8341 79.9624 16.3352C77.8827 16.3906 77.0089 16.4776 76.8942 15.8845C76.7756 15.2954 77.1315 12.3141 77.9183 12.0888ZM89.8985 12.5355L93.5361 9.40013L92.1483 18.7827H89.0761L89.8985 12.5355Z" fill="black"/>
<path d="M94.2873 9.40016L93.7614 12.7609L99.4234 9.34875L94.2873 9.40016Z" fill="#29B2FE"/>
<path d="M62.4231 9.40805C60.0903 9.38828 59.5525 9.42782 58.6827 9.40805C57.8089 9.38828 57.2198 10.6852 57.2751 12.0611H60.8534C60.8534 12.0611 61.2171 12.0057 61.2488 12.3181C61.2646 12.6186 61.2646 12.9191 61.2488 13.2196H58.655C58.655 13.2196 54.9977 13.5557 56.1522 17.9721C56.3776 18.6482 57.5005 19.1188 58.1212 19.095C58.742 19.0713 60.288 18.5059 60.541 18.2805L60.5687 18.8143L63.3245 18.7866C63.3245 18.7866 64.2537 13.0219 64.3644 12.5435C64.4751 12.0651 64.6728 10.2186 62.4231 9.40805ZM60.0112 16.7385C58.9239 16.7385 58.7736 15.6868 59.6395 15.1253C60.5015 14.7497 61.0273 14.9751 61.0273 14.9751C61.0273 14.9751 61.0669 16.7781 60.0112 16.7385Z" fill="black"/>
</g>
<defs>
<clipPath id="clip0_412_735">
<rect width="98.8468" height="24" fill="white" transform="translate(0.576599 0.5)"/>
</clipPath>
</defs>
</svg>
