<svg xmlns="http://www.w3.org/2000/svg" viewBox="0 0 750 500"><g id="freepik--background-complete--inject-27"><rect x="38.51" y="57.39" width="73.61" height="76.73" style="fill:#e0e0e0"></rect><rect x="33.53" y="57.39" width="73.61" height="76.73" style="fill:#f5f5f5"></rect><path d="M107.15,134.14H33.5V57.36h73.65Zm-73.6,0h73.56V57.41H33.55Z" style="fill:#e0e0e0"></path><rect x="43.42" y="67.7" width="53.82" height="56.1" style="fill:#fff"></rect><path d="M43.42,124.17a9,9,0,0,1-1.33,1.55c-.86.9-2.07,2.13-3.42,3.46s-2.6,2.53-3.51,3.37a9.19,9.19,0,0,1-1.56,1.3,7.91,7.91,0,0,1,1.32-1.54c.86-.91,2.07-2.14,3.43-3.48s2.6-2.53,3.52-3.37A8.82,8.82,0,0,1,43.42,124.17Z" style="fill:#e0e0e0"></path><path d="M97.24,124a9.21,9.21,0,0,1,1.54,1.33c.91.86,2.14,2.07,3.47,3.42s2.52,2.6,3.36,3.52a8.66,8.66,0,0,1,1.3,1.55,8.27,8.27,0,0,1-1.54-1.32c-.9-.86-2.14-2.07-3.47-3.42s-2.53-2.61-3.37-3.53A7.59,7.59,0,0,1,97.24,124Z" style="fill:#e0e0e0"></path><path d="M97.09,67.85a8.76,8.76,0,0,1,1.33-1.54c.86-.91,2.06-2.14,3.42-3.47s2.6-2.52,3.51-3.37a8.24,8.24,0,0,1,1.56-1.29,8.45,8.45,0,0,1-1.32,1.53c-.86.91-2.07,2.14-3.43,3.48s-2.6,2.53-3.52,3.37A8.82,8.82,0,0,1,97.09,67.85Z" style="fill:#e0e0e0"></path><path d="M43.27,68a9.21,9.21,0,0,1-1.54-1.33c-.91-.86-2.14-2.07-3.47-3.42s-2.52-2.6-3.36-3.52a8.66,8.66,0,0,1-1.3-1.55,8.27,8.27,0,0,1,1.54,1.32c.9.86,2.13,2.07,3.47,3.43s2.53,2.6,3.37,3.52A7.92,7.92,0,0,1,43.27,68Z" style="fill:#e0e0e0"></path><path d="M97.09,123.8s0-.1,0-.27,0-.45,0-.79c0-.7,0-1.71,0-3,0-2.66,0-6.53-.05-11.44,0-9.82-.06-23.82-.11-40.58l.21.21-53.66,0h0l.24-.24c0,20.59,0,39.85,0,56.1l-.2-.21,38.86.11,10.92,0,2.88,0h0l-2.85,0-10.87.05-39,.1h-.2v-.2c0-16.25,0-35.51,0-56.1v-.24h.25l53.66,0h.21v.21c0,16.81-.08,30.86-.11,40.71,0,4.89,0,8.74,0,11.39,0,1.3,0,2.3,0,3,0,.32,0,.57,0,.76A2.28,2.28,0,0,1,97.09,123.8Z" style="fill:#e0e0e0"></path><rect x="61.35" y="86.77" width="17.96" height="17.96" style="fill:#ebebeb"></rect><path d="M597.9,73a39.57,39.57,0,0,1,9.72-4.22l2-9.62,16.25-.29,2.34,9.54a39.75,39.75,0,0,1,9.86,3.88l8.21-5.38L658,78.16l-5.09,8.39a40,40,0,0,1,4.23,9.72l9.61,2,.29,16.25-9.54,2.34a39.6,39.6,0,0,1-3.88,9.86l5.38,8.21-11.29,11.7-8.39-5.09a40.34,40.34,0,0,1-9.72,4.22l-2,9.62-16.25.28L609,146.12a39.75,39.75,0,0,1-9.86-3.88l-8.21,5.38-11.69-11.28,5.09-8.4a39.65,39.65,0,0,1-4.23-9.72l-9.61-2L570.18,100l9.54-2.34a39.9,39.9,0,0,1,3.88-9.86l-5.38-8.21,11.29-11.69L597.9,73Zm8.67,21.65a17.43,17.43,0,1,0,24.65-.44A17.43,17.43,0,0,0,606.57,94.61Z" style="fill:#e0e0e0"></path><path d="M684.46,139.45a21.13,21.13,0,0,1,4.27-3.65l-.48-5.18,8.19-2.66,2.66,4.47a21.19,21.19,0,0,1,5.6.44l3.33-4,7.67,3.91-1.28,5a20.76,20.76,0,0,1,3.64,4.27l5.18-.48,2.67,8.19-4.48,2.66a20.77,20.77,0,0,1-.43,5.6l4,3.33-3.91,7.67-5-1.28a21.4,21.4,0,0,1-4.27,3.64l.47,5.18-8.19,2.67-2.66-4.48a20.73,20.73,0,0,1-5.59-.43l-3.33,4-7.67-3.9,1.28-5a21.13,21.13,0,0,1-3.65-4.27l-5.18.47-2.66-8.19,4.47-2.66a21.12,21.12,0,0,1,.44-5.59l-4-3.33,3.91-7.67,5,1.28Zm7.74,9.62a9.24,9.24,0,1,0,12.42-4A9.23,9.23,0,0,0,692.2,149.07Z" style="fill:#e0e0e0"></path><path d="M652.63,203.18a22.08,22.08,0,0,1,4.46-3.81L656.6,194l8.55-2.78,2.78,4.68a22.23,22.23,0,0,1,5.85.45l3.48-4.17,8,4.08-1.34,5.27a22.12,22.12,0,0,1,3.81,4.46l5.41-.5,2.78,8.56-4.67,2.78a21.82,21.82,0,0,1-.46,5.85l4.18,3.48-4.08,8-5.27-1.33a22.4,22.4,0,0,1-4.46,3.81l.5,5.41-8.56,2.78-2.78-4.67a21.82,21.82,0,0,1-5.85-.46L661,243.84l-8-4.08,1.34-5.27a22.4,22.4,0,0,1-3.81-4.46l-5.41.49L642.33,222l4.67-2.79a21.78,21.78,0,0,1,.46-5.84l-4.18-3.48,4.08-8,5.27,1.34Zm8.09,10.06a9.65,9.65,0,1,0,13-4.22A9.65,9.65,0,0,0,660.72,213.24Z" style="fill:#f5f5f5"></path><path d="M402.9,51.42A25.45,25.45,0,0,1,408,47l-.57-6.24,9.85-3.2,3.2,5.38a25.51,25.51,0,0,1,6.73.53l4-4.81,9.22,4.7L439,49.46a25.45,25.45,0,0,1,4.38,5.14l6.23-.57,3.21,9.85-5.38,3.2a25.58,25.58,0,0,1-.53,6.74l4.81,4L447,87.05l-6.07-1.54a25.12,25.12,0,0,1-5.13,4.38l.57,6.24-9.85,3.2L423.29,94a25.58,25.58,0,0,1-6.74-.53l-4,4.81-9.23-4.7,1.54-6.06a25.45,25.45,0,0,1-4.38-5.14l-6.24.57L391,73.05l5.38-3.2a25.51,25.51,0,0,1,.53-6.73l-4.82-4,4.71-9.23,6.06,1.54ZM412.22,63a11.11,11.11,0,1,0,14.94-4.85A11.11,11.11,0,0,0,412.22,63Z" style="fill:#e0e0e0"></path><path d="M66.88,382.68a29.31,29.31,0,0,0-12.58-4.33c-2.06-.22-4.3-.16-5.95,1.09a1.24,1.24,0,0,0-.62,1.09,1.37,1.37,0,0,0,.59.74,18,18,0,0,0,18.56,1.41" style="fill:#e0e0e0"></path><path d="M66.56,382.32a61.47,61.47,0,0,1-8.13-7.15,20.56,20.56,0,0,1-5.09-9.42,3.81,3.81,0,0,1,.4-3.16c6.48,5.06,11.57,11.61,12.82,19.73" style="fill:#e0e0e0"></path><path d="M66.81,382.63A29.42,29.42,0,0,1,67,372a14.39,14.39,0,0,1,5.68-8.81c1.12,2.62.64,5.63-.15,8.37a40.56,40.56,0,0,1-5.64,11.86" style="fill:#e0e0e0"></path><path d="M73.17,394a18.58,18.58,0,0,0-10.1,5.1A19.18,19.18,0,0,0,57.3,409c3.78-.23,7-2.9,9.32-5.89s3.94-6.27,6.49-9.07" style="fill:#e0e0e0"></path><path d="M74.54,395.83a24.9,24.9,0,0,1,2.88-23.55c2.19,7.82,1.39,16.64-2.88,23.55" style="fill:#e0e0e0"></path><path d="M82.94,405.82a18,18,0,0,0-17.21,9.9,1.33,1.33,0,0,0-.12,1.35,1.31,1.31,0,0,0,1.14.34c3.39-.22,6.4-2.26,8.88-4.59s4.64-5,7.38-7" style="fill:#e0e0e0"></path><path d="M82.67,405.27a32,32,0,0,1-.32-17.9c.63-2.3,1.69-4.73,3.82-5.81a.59.59,0,0,1,1,.33A10.71,10.71,0,0,1,88,387a32.68,32.68,0,0,1-.8,5.2c-.67,3.18-1,6.59-2.77,9.33a18.47,18.47,0,0,0-1.11,2.05c-.33.7-.33.95-.64,1.5" style="fill:#e0e0e0"></path><path d="M104.88,408.58a23.08,23.08,0,0,1,4-19c.29-.37.68-.78,1.15-.74.73.07.92,1,.89,1.77a34.32,34.32,0,0,1-6.08,17.95" style="fill:#e0e0e0"></path><path d="M106.88,410a27.56,27.56,0,0,0,22.65-4.61,18.3,18.3,0,0,0-12.26-1.5c-4.1.94-7.84,2.77-10.39,6.11" style="fill:#e0e0e0"></path><path d="M108.57,405.78a26.17,26.17,0,0,1,20.56-11.88c-.94,3.3-3.66,5.88-6.72,7.43a37.74,37.74,0,0,1-9.87,2.89c-1.32.25-3.12.53-4,1.56" style="fill:#e0e0e0"></path><path d="M105.3,385.56a60.22,60.22,0,0,0,2.63-12,20,20,0,0,0-2.4-11.91c-4,7.7-4.38,16.69-.35,24.36" style="fill:#e0e0e0"></path><path d="M118.7,378.79c4.65-8.46,14.14-15.21,23.74-16.16-3.7,9.23-13.8,16.36-23.74,16.16" style="fill:#e0e0e0"></path><path d="M115.77,380.45c6.94,1.05,12.85,5.49,19.33,8.17a8.68,8.68,0,0,0,4.37.84,3.42,3.42,0,0,0,2.15-6,9.49,9.49,0,0,0-3.18-1.93c-7.06-2.94-14.63-3-22.07-1.23" style="fill:#e0e0e0"></path><path d="M111.75,385.31c1.57.45,2.11,1.27,3.36,2.33a36.24,36.24,0,0,0,14.66,7.53c.56.14,1.29.19,1.57-.31s-.07-1-.38-1.37a20.17,20.17,0,0,0-8.85-6c-3.39-1.26-6.32-2.78-10.36-2.46" style="fill:#e0e0e0"></path><path d="M107.22,355.92a27.75,27.75,0,0,0,21.28,7.24,1.42,1.42,0,0,0,1-.35c.54-.58-.1-1.48-.73-2-6.25-4.87-13.83-6.89-21.51-4.92" style="fill:#e0e0e0"></path><path d="M112.59,354a29.63,29.63,0,0,1,26.55-4.38,21.11,21.11,0,0,1-12.65,5.55,40,40,0,0,1-13.9-1.17" style="fill:#e0e0e0"></path><path d="M110.46,340.45c-.61-6.24-.22-11.17-.65-17.44,0-.5-.14-1.11-.61-1.29-.65-.25-1.2.55-1.41,1.22a20,20,0,0,0,2.66,17.37" style="fill:#e0e0e0"></path><path d="M110,341.14a36.64,36.64,0,0,0,10.34-10.05c2-2.8,3.77-6.14,3.3-9.57a9.89,9.89,0,0,0-7.46,3.7,20.9,20.9,0,0,0-3.8,7.65c-.83,2.75-1.41,5.57-2.38,8.27" style="fill:#e0e0e0"></path><path d="M120.17,338.32a83.55,83.55,0,0,0,25.45-15c-3-1.22-6.52-.49-9.56.74a30.11,30.11,0,0,0-16,14.2" style="fill:#e0e0e0"></path><path d="M112.87,344.55a51.45,51.45,0,0,0,14.13.07c4.58-.76,8.91-2.58,13.19-4.38a1.6,1.6,0,0,0,.9-.68,1.05,1.05,0,0,0-.33-1.13,2.83,2.83,0,0,0-1.12-.53,24.41,24.41,0,0,0-14.26.86,65.71,65.71,0,0,0-12.51,5.79" style="fill:#e0e0e0"></path><path d="M86,356.14a25.05,25.05,0,0,1-.23-20.69c2,3,2.19,6.75,1.84,10.28s-1.44,7.18-1.51,10.73" style="fill:#e0e0e0"></path><path d="M73.24,349.68a28.81,28.81,0,0,0-21.44,9.13,20,20,0,0,0,11.74-2.18A59.64,59.64,0,0,0,73.6,349.9" style="fill:#e0e0e0"></path><path d="M64.63,346.8c-3.91-.32-7.68-.8-11.44.35a13.72,13.72,0,0,0-8.73,7.4,20.71,20.71,0,0,0,10.73-2,61.79,61.79,0,0,0,9.44-5.72" style="fill:#e0e0e0"></path><path d="M77.38,346.93c-3.53-2.31-7.14-4.66-11.24-5.61s-8.86-.25-11.71,2.84c3.31,1.95,7.34,2.18,11.19,2.17s8.57,0,12.2,1.24" style="fill:#e0e0e0"></path><path d="M77.4,347.12c-6-5.92-8.31-16.54-5.88-24.62a37.53,37.53,0,0,1,5.88,24.62" style="fill:#e0e0e0"></path><path d="M94,330.36c1.14-2.63,1.94-5.41,3-8.09a23.23,23.23,0,0,1,4.2-7.47,11.1,11.1,0,0,1,7.46-3.86A30,30,0,0,1,94.1,330.41" style="fill:#e0e0e0"></path><path d="M91,333.86c-1.88-2.59-4-6.1-6.6-8s-5.87-3.1-9-2.36A20.93,20.93,0,0,0,91,333.86" style="fill:#e0e0e0"></path><path d="M91.56,330.58a43.71,43.71,0,0,1-3-9.62,15,15,0,0,1,1.5-9.78c3.31,6.25,4.37,12.95,1.63,19.47" style="fill:#e0e0e0"></path><path d="M94,311.18c1.87-6.19,7.55-10.75,13.67-12.84A4.94,4.94,0,0,1,110,298a2.07,2.07,0,0,1,1.77,1.47c.22,1.05-.65,2-1.47,2.7a46.5,46.5,0,0,1-16.36,9" style="fill:#e0e0e0"></path><path d="M94.05,306.12c.24-4,.49-8.05,1.79-11.83s3.8-7.33,7.44-9c.62,4-1.16,8.05-3.31,11.52s-4.73,6.74-6,10.61" style="fill:#e0e0e0"></path><path d="M94,308.86c-1.54-4.51-1.7-10.24-4.41-14.17-1.89-2.75-4.91-4.62-6.54-7.54a11.47,11.47,0,0,0,.38,8.55,24.65,24.65,0,0,0,5,7.16c2,2.14,3.71,3.75,5.57,6" style="fill:#e0e0e0"></path><path d="M94,441.78c-.12,0-.22-30.11-.23-67.24s.08-67.25.2-67.25.23,30.1.24,67.25S94.1,441.78,94,441.78Z" style="fill:#e0e0e0"></path><path d="M120.29,351.59a6.13,6.13,0,0,1-1.13.43l-3.11,1.05c-2.63.89-6.24,2.19-10.16,3.79s-7.53,3-9.61,4.82a7.19,7.19,0,0,0-1.94,2.56c-.29.71-.35,1.14-.39,1.13a.91.91,0,0,1,0-.31,4,4,0,0,1,.22-.88,6.75,6.75,0,0,1,1.88-2.73,17.12,17.12,0,0,1,4.18-2.59c1.66-.78,3.52-1.59,5.48-2.4,3.93-1.61,7.57-2.86,10.22-3.68,1.33-.42,2.41-.72,3.16-.93A7.22,7.22,0,0,1,120.29,351.59Z" style="fill:#e0e0e0"></path><path d="M128.92,330.41a2.32,2.32,0,0,1-.32.34l-1,.9L124,334.93l-12,10.69c-4.68,4.17-8.73,8.16-11.54,11.16-1.4,1.5-2.51,2.74-3.27,3.6l-.87,1a1.74,1.74,0,0,1-.32.33s.07-.14.25-.38.45-.61.81-1.05c.72-.91,1.79-2.18,3.17-3.71a154.44,154.44,0,0,1,11.48-11.28c4.71-4.16,9-7.9,12.1-10.59l3.69-3.17,1-.85A1.86,1.86,0,0,1,128.92,330.41Z" style="fill:#e0e0e0"></path><path d="M107,349.86c-.12-.05.86-2.31,1.84-5.17s1.44-5.27,1.57-5.25a17.69,17.69,0,0,1-1.16,5.39,34.1,34.1,0,0,1-1.46,3.61A5.44,5.44,0,0,1,107,349.86Z" style="fill:#e0e0e0"></path><path d="M94,368.08a5.51,5.51,0,0,1-.72-.83l-1.85-2.38c-1.56-2-3.7-4.78-6.11-7.81s-4.62-5.76-6.23-7.73L77.21,347a5.34,5.34,0,0,1-.65-.89,5.53,5.53,0,0,1,.78.78c.48.53,1.17,1.29,2,2.26,1.66,1.92,3.92,4.61,6.33,7.65s4.52,5.84,6,7.9c.75,1,1.34,1.87,1.74,2.46A6.32,6.32,0,0,1,94,368.08Z" style="fill:#e0e0e0"></path><path d="M88.24,360.68a10.7,10.7,0,0,1-2.42-4.53,12.8,12.8,0,0,1-.54-4.56l.19,0c-.09.35-.15.53-.19.52s0-.2,0-.55h.19a20.67,20.67,0,0,0,.77,4.44A34.87,34.87,0,0,0,88.24,360.68Z" style="fill:#e0e0e0"></path><path d="M80.79,351.31a7.77,7.77,0,0,0-1.68-1,11.25,11.25,0,0,0-4.69-.37,28.57,28.57,0,0,0-4.72.76,14.84,14.84,0,0,1-1.94.46,7,7,0,0,1,1.86-.76,21.69,21.69,0,0,1,4.77-.9,10.22,10.22,0,0,1,4.83.52A3,3,0,0,1,80.79,351.31Z" style="fill:#e0e0e0"></path><path d="M79,349c0,.07-1-.4-2.59-.94a26.06,26.06,0,0,0-13-1c-1.66.3-2.67.61-2.69.54a2.32,2.32,0,0,1,.68-.29,16,16,0,0,1,2-.55,23.13,23.13,0,0,1,13.2,1,14.23,14.23,0,0,1,1.84.84A2.19,2.19,0,0,1,79,349Z" style="fill:#e0e0e0"></path><path d="M94,339.44a55,55,0,0,1-1.88-6.55,54.69,54.69,0,0,1-1.47-6.66,53.13,53.13,0,0,1,1.89,6.55A53.43,53.43,0,0,1,94,339.44Z" style="fill:#e0e0e0"></path><path d="M94.07,339.44A30.8,30.8,0,0,0,92,335.52a17.51,17.51,0,0,0-3.07-3.18,2.88,2.88,0,0,1,1.18.61,9.8,9.8,0,0,1,2.25,2.32A8.59,8.59,0,0,1,94.07,339.44Z" style="fill:#e0e0e0"></path><path d="M94,425.73s-.13-.72-.47-2a29.13,29.13,0,0,0-2-5.21,72.24,72.24,0,0,0-10.68-15c-2.38-2.73-4.7-5.29-6.66-7.75a55.39,55.39,0,0,1-4.76-6.87,33,33,0,0,1-2.4-5.1c-.22-.62-.39-1.11-.47-1.45a3,3,0,0,1-.13-.52s.26.69.76,1.91a36,36,0,0,0,2.51,5,56.83,56.83,0,0,0,4.8,6.77c2,2.44,4.29,5,6.68,7.72a68.18,68.18,0,0,1,10.62,15.19,26.22,26.22,0,0,1,1.9,5.31,13.81,13.81,0,0,1,.27,1.51A2.12,2.12,0,0,1,94,425.73Z" style="fill:#e0e0e0"></path><path d="M117.76,398.88a12.29,12.29,0,0,1-1.25.7,27.91,27.91,0,0,0-3.23,2.13,37.38,37.38,0,0,0-4.24,3.87c-1.49,1.58-3,3.41-4.59,5.36-3.14,3.93-6.07,7.41-7.82,10.19a38.53,38.53,0,0,0-2,3.35,10.24,10.24,0,0,1-.69,1.25,1.5,1.5,0,0,1,.12-.35c.09-.23.22-.56.42-1A32.66,32.66,0,0,1,96.37,421a112.28,112.28,0,0,1,7.74-10.29c1.57-2,3.12-3.79,4.64-5.36a33.84,33.84,0,0,1,4.35-3.84,21.4,21.4,0,0,1,3.33-2c.42-.21.75-.34,1-.43S117.75,398.86,117.76,398.88Z" style="fill:#e0e0e0"></path><path d="M118.22,407.59a19.28,19.28,0,0,1-2.63.38,34.86,34.86,0,0,0-6.25,1.23,18.9,18.9,0,0,0-5.59,2.94c-1.29,1-1.9,1.82-2,1.77a2.13,2.13,0,0,1,.39-.61,10.32,10.32,0,0,1,1.38-1.4,16.92,16.92,0,0,1,5.65-3.11,27.81,27.81,0,0,1,6.35-1.12A14.23,14.23,0,0,1,118.22,407.59Z" style="fill:#e0e0e0"></path><path d="M102.56,413c-.13-.08,1-1.89,2-4.33s1.07-4.62,1.22-4.59a3.91,3.91,0,0,1,0,1.41,14.71,14.71,0,0,1-.77,3.33,15.62,15.62,0,0,1-1.53,3.05A3.94,3.94,0,0,1,102.56,413Z" style="fill:#e0e0e0"></path><path d="M125.46,375.49a2.45,2.45,0,0,1-.42.22l-1.24.56c-.54.24-1.2.53-1.94.92s-1.61.78-2.52,1.32l-1.44.82c-.49.29-1,.63-1.51,1-1.06.64-2.12,1.43-3.25,2.24a55.86,55.86,0,0,0-12.53,13c-.77,1.16-1.53,2.25-2.13,3.33-.31.54-.63,1-.9,1.55s-.53,1-.77,1.46c-.51.92-.88,1.81-1.24,2.56s-.63,1.42-.85,2l-.52,1.26a1.59,1.59,0,0,1-.21.43,2.17,2.17,0,0,1,.13-.46c.12-.34.26-.77.44-1.29a21.41,21.41,0,0,1,.79-2c.34-.76.69-1.66,1.18-2.6l.75-1.48c.26-.52.58-1,.89-1.57.59-1.1,1.34-2.2,2.11-3.38A58.69,58.69,0,0,1,106,388.2a57.31,57.31,0,0,1,6.87-6c1.15-.81,2.22-1.59,3.3-2.23.53-.32,1-.66,1.53-.94l1.46-.8c.92-.52,1.81-.9,2.56-1.27s1.43-.64,2-.85l1.28-.49C125.3,375.52,125.45,375.47,125.46,375.49Z" style="fill:#e0e0e0"></path><path d="M106.64,388.1a3,3,0,0,1,1-1.55,6.58,6.58,0,0,1,4.17-1.6,11.58,11.58,0,0,1,4.38.86,6.18,6.18,0,0,1,1.66.81,10.63,10.63,0,0,1-1.76-.52,13.08,13.08,0,0,0-4.27-.71,6.75,6.75,0,0,0-4,1.4A12.1,12.1,0,0,0,106.64,388.1Z" style="fill:#e0e0e0"></path><path d="M103.83,391a15.92,15.92,0,0,0,1.18-3.85,15.55,15.55,0,0,0-.26-4s.28.38.49,1.12a8.09,8.09,0,0,1,.21,2.95,7.94,7.94,0,0,1-.89,2.82C104.2,390.68,103.87,391,103.83,391Z" style="fill:#e0e0e0"></path><path d="M73.19,430.05c.65,11.5,4.11,23.21,9.45,35h23.19c5.09-11.72,8.31-23.4,8.89-35Z" style="fill:#e0e0e0"></path><path d="M111,448.67c0,.12-7.64.21-17.06.21s-17.05-.09-17.05-.21,7.63-.22,17.05-.22S111,448.55,111,448.67Z" style="fill:#fafafa"></path><path d="M110.44,452.83c0,.12-7.16.22-16,.22s-16-.1-16-.22,7.16-.21,16-.21S110.44,452.71,110.44,452.83Z" style="fill:#fafafa"></path><path d="M83,437.6a65,65,0,0,1,0,10.69,65,65,0,0,1,0-10.69Z" style="fill:#fafafa"></path><path d="M95.44,437.6a69.74,69.74,0,0,1,0,11.07,69.74,69.74,0,0,1,0-11.07Z" style="fill:#fafafa"></path><path d="M107.1,437.51a72.4,72.4,0,0,1,0,11.28,75.84,75.84,0,0,1,0-11.28Z" style="fill:#fafafa"></path><path d="M114,437.6c0,.12-9,.22-20,.22s-20-.1-20-.22,9-.22,20-.22S114,437.48,114,437.6Z" style="fill:#fafafa"></path></g><g id="freepik--Floor--inject-27"><path d="M699.12,464.43c0,.14-145.13.26-324.1.26s-324.14-.12-324.14-.26,145.1-.26,324.14-.26S699.12,464.28,699.12,464.43Z" style="fill:#263238"></path></g><g id="freepik--device-1--inject-27"><path d="M575.48,63H154.08a13.16,13.16,0,0,0-13.15,13.16V373.81A13.16,13.16,0,0,0,154.08,387H315.81l-8.18,79.1,117.8-.74L418.69,387H575.48a13.16,13.16,0,0,0,13.16-13.16V76.17A13.16,13.16,0,0,0,575.48,63Z" style="fill:#455a64"></path><path d="M370.41,355.66c5.73,8.2-3.24,17.17-11.44,11.44a3,3,0,0,1-.7-.71c-5.72-8.19,3.24-17.15,11.43-11.43A3,3,0,0,1,370.41,355.66Z" style="fill:#263238"></path><path d="M157.88,68.47h413.8a9.7,9.7,0,0,1,9.7,9.7V332.51a0,0,0,0,1,0,0H148.18a0,0,0,0,1,0,0V78.16A9.7,9.7,0,0,1,157.88,68.47Z" style="fill:#fff"></path><path d="M157.34,68.47H573.86A7.52,7.52,0,0,1,581.38,76V90.41a0,0,0,0,1,0,0H148.18a0,0,0,0,1,0,0V77.62A9.15,9.15,0,0,1,157.34,68.47Z" style="fill:#f5f5f5"></path><path d="M165,79.9a3,3,0,1,1-3-3.05A3,3,0,0,1,165,79.9Z" style="fill:#e0e0e0"></path><path d="M174.09,79.9a3,3,0,1,1-3-3.05A3,3,0,0,1,174.09,79.9Z" style="fill:#e0e0e0"></path><path d="M182.72,79.9a3,3,0,1,1-3-3.05A3,3,0,0,1,182.72,79.9Z" style="fill:#e0e0e0"></path><path d="M462.17,387c0,.15-35.33.26-78.9.26s-78.9-.11-78.9-.26,35.32-.26,78.9-.26S462.17,386.83,462.17,387Z" style="fill:#263238"></path><rect x="148.18" y="90.41" width="71.2" height="242.11" style="fill:#ebebeb"></rect><path d="M179.47,95.58a5,5,0,0,1,1.19-.51l.24-1.18,2,0,.28,1.16a5,5,0,0,1,1.21.48l1-.66,1.42,1.38-.62,1a4.83,4.83,0,0,1,.52,1.19l1.17.24,0,2-1.17.29a4.9,4.9,0,0,1-.47,1.2l.66,1-1.38,1.43-1-.62a4.39,4.39,0,0,1-1.18.51l-.25,1.18-2,0-.28-1.16a4.63,4.63,0,0,1-1.21-.48l-1,.66-1.43-1.38.63-1a4.68,4.68,0,0,1-.52-1.19l-1.17-.24,0-2,1.17-.29a4.9,4.9,0,0,1,.47-1.2l-.66-1L178.45,95l1,.62Zm1.06,2.64a2.13,2.13,0,1,0,3,0A2.14,2.14,0,0,0,180.53,98.22Z" style="fill:#e0e0e0"></path><path d="M195.92,151.14h-31A3.19,3.19,0,0,1,161.7,148h0a3.19,3.19,0,0,1,3.19-3.19h31a3.19,3.19,0,0,1,3.19,3.19h0A3.19,3.19,0,0,1,195.92,151.14Z" style="fill:#e0e0e0"></path><path d="M195.92,134.89h-31a3.19,3.19,0,0,1-3.19-3.19h0a3.19,3.19,0,0,1,3.19-3.19h31a3.19,3.19,0,0,1,3.19,3.19h0A3.19,3.19,0,0,1,195.92,134.89Z" style="fill:#e0e0e0"></path><path d="M195.92,120h-31a3.19,3.19,0,0,1-3.19-3.19h0a3.19,3.19,0,0,1,3.19-3.19h31a3.19,3.19,0,0,1,3.19,3.19h0A3.19,3.19,0,0,1,195.92,120Z" style="fill:#e0e0e0"></path><path d="M279.32,118.19h-29.4a3.19,3.19,0,0,1-3.19-3.19h0a3.19,3.19,0,0,1,3.19-3.19h29.4a3.19,3.19,0,0,1,3.19,3.19h0A3.19,3.19,0,0,1,279.32,118.19Z" style="fill:#263238"></path><path d="M279.32,134.89h-29.4a3.19,3.19,0,0,1-3.19-3.19h0a3.19,3.19,0,0,1,3.19-3.19h29.4a3.19,3.19,0,0,1,3.19,3.19h0A3.19,3.19,0,0,1,279.32,134.89Z" style="fill:#e0e0e0"></path><path d="M279.32,152.14h-29.4a3.19,3.19,0,0,1-3.19-3.19h0a3.19,3.19,0,0,1,3.19-3.19h29.4a3.19,3.19,0,0,1,3.19,3.19h0A3.19,3.19,0,0,1,279.32,152.14Z" style="fill:#00B2FF"></path><path d="M266.78,185.5H249.92a3.19,3.19,0,0,1-3.19-3.19h0a3.19,3.19,0,0,1,3.19-3.19h16.86a3.19,3.19,0,0,1,3.19,3.19h0A3.19,3.19,0,0,1,266.78,185.5Z" style="fill:#263238"></path><path d="M266.78,202.8H249.92a3.19,3.19,0,0,1-3.19-3.19h0a3.19,3.19,0,0,1,3.19-3.19h16.86a3.19,3.19,0,0,1,3.19,3.19h0A3.19,3.19,0,0,1,266.78,202.8Z" style="fill:#263238"></path><path d="M316.88,202.8H286a3.19,3.19,0,0,1-3.19-3.19h0a3.19,3.19,0,0,1,3.19-3.19h30.91a3.19,3.19,0,0,1,3.19,3.19h0A3.19,3.19,0,0,1,316.88,202.8Z" style="fill:#e0e0e0"></path><path d="M299.4,218.17H268.48a3.19,3.19,0,0,1-3.19-3.19h0a3.19,3.19,0,0,1,3.19-3.19H299.4a3.19,3.19,0,0,1,3.19,3.19h0A3.19,3.19,0,0,1,299.4,218.17Z" style="fill:#00B2FF"></path><rect x="282.83" y="229.33" width="25.59" height="6.38" rx="3.11" style="fill:#00B2FF"></rect><path d="M305.23,270.09H286a3.19,3.19,0,0,1-3.19-3.19h0a3.19,3.19,0,0,1,3.19-3.19h19.21a3.19,3.19,0,0,1,3.19,3.19h0A3.19,3.19,0,0,1,305.23,270.09Z" style="fill:#00B2FF"></path><path d="M305.23,306.4H286a3.19,3.19,0,0,1-3.19-3.19h0A3.19,3.19,0,0,1,286,300h19.21a3.19,3.19,0,0,1,3.19,3.19h0A3.19,3.19,0,0,1,305.23,306.4Z" style="fill:#00B2FF"></path><path d="M352.45,306.4H318.78a3.19,3.19,0,0,1-3.19-3.19h0a3.19,3.19,0,0,1,3.19-3.19h33.67a3.19,3.19,0,0,1,3.19,3.19h0A3.19,3.19,0,0,1,352.45,306.4Z" style="fill:#455a64"></path><path d="M376,306.4h-4.85a3.19,3.19,0,0,1-3.19-3.19h0a3.19,3.19,0,0,1,3.19-3.19H376a3.19,3.19,0,0,1,3.19,3.19h0A3.19,3.19,0,0,1,376,306.4Z" style="fill:#e0e0e0"></path><path d="M350.43,270.09H322a3.19,3.19,0,0,1-3.19-3.19h0a3.19,3.19,0,0,1,3.19-3.19h28.45a3.19,3.19,0,0,1,3.19,3.19h0A3.19,3.19,0,0,1,350.43,270.09Z" style="fill:#e0e0e0"></path><path d="M412.84,286H322a3.19,3.19,0,0,1-3.19-3.19h0a3.19,3.19,0,0,1,3.19-3.19h90.86a3.19,3.19,0,0,1,3.19,3.19h0A3.19,3.19,0,0,1,412.84,286Z" style="fill:#e0e0e0"></path><path d="M423.33,270.09h-58a3.19,3.19,0,0,1-3.19-3.19h0a3.19,3.19,0,0,1,3.19-3.19h58a3.19,3.19,0,0,1,3.19,3.19h0A3.19,3.19,0,0,1,423.33,270.09Z" style="fill:#455a64"></path><rect x="316.78" y="229.33" width="30.41" height="6.38" rx="3.11" style="fill:#455a64"></rect><rect x="355.64" y="229.33" width="12.35" height="6.38" rx="3.11" style="fill:#e0e0e0"></rect><rect x="377.39" y="229.33" width="36.43" height="6.38" rx="3.11" style="fill:#e0e0e0"></rect><path d="M320.34,218.17h-6.89a3.19,3.19,0,0,1-3.19-3.19h0a3.19,3.19,0,0,1,3.19-3.19h6.89a3.18,3.18,0,0,1,3.18,3.19h0A3.18,3.18,0,0,1,320.34,218.17Z" style="fill:#263238"></path><path d="M378.69,218.17H334.83a3.19,3.19,0,0,1-3.19-3.19h0a3.19,3.19,0,0,1,3.19-3.19h43.86a3.19,3.19,0,0,1,3.19,3.19h0A3.19,3.19,0,0,1,378.69,218.17Z" style="fill:#e0e0e0"></path><path d="M326.42,118.19H297a3.19,3.19,0,0,1-3.19-3.19h0a3.19,3.19,0,0,1,3.19-3.19h29.4a3.19,3.19,0,0,1,3.19,3.19h0A3.19,3.19,0,0,1,326.42,118.19Z" style="fill:#455a64"></path><path d="M364.3,134.89H297a3.19,3.19,0,0,1-3.19-3.19h0a3.19,3.19,0,0,1,3.19-3.19H364.3a3.19,3.19,0,0,1,3.19,3.19h0A3.19,3.19,0,0,1,364.3,134.89Z" style="fill:#263238"></path><path d="M436.74,152.14H297a3.19,3.19,0,0,1-3.19-3.19h0a3.19,3.19,0,0,1,3.19-3.19H436.74a3.19,3.19,0,0,1,3.19,3.19h0A3.19,3.19,0,0,1,436.74,152.14Z" style="fill:#e0e0e0"></path><path d="M362.9,164.3H297a3.19,3.19,0,0,1-3.19-3.19h0a3.19,3.19,0,0,1,3.19-3.19H362.9a3.19,3.19,0,0,1,3.19,3.19h0A3.19,3.19,0,0,1,362.9,164.3Z" style="fill:#e0e0e0"></path><path d="M349.42,185.5H283.54a3.19,3.19,0,0,1-3.19-3.19h0a3.19,3.19,0,0,1,3.19-3.19h65.88a3.19,3.19,0,0,1,3.19,3.19h0A3.19,3.19,0,0,1,349.42,185.5Z" style="fill:#455a64"></path><path d="M386.3,185.5H364.22a3.19,3.19,0,0,1-3.19-3.19h0a3.19,3.19,0,0,1,3.19-3.19H386.3a3.19,3.19,0,0,1,3.19,3.19h0A3.19,3.19,0,0,1,386.3,185.5Z" style="fill:#00B2FF"></path><path d="M442.76,185.4H401.05a3.19,3.19,0,0,1-3.19-3.19h0a3.19,3.19,0,0,1,3.19-3.19h41.71a3.19,3.19,0,0,1,3.19,3.19h0A3.19,3.19,0,0,1,442.76,185.4Z" style="fill:#263238"></path><path d="M499.52,185.4H457.81a3.19,3.19,0,0,1-3.19-3.19h0a3.19,3.19,0,0,1,3.19-3.19h41.71a3.19,3.19,0,0,1,3.19,3.19h0A3.19,3.19,0,0,1,499.52,185.4Z" style="fill:#e0e0e0"></path><path d="M182.48,168.34H164.89a3.19,3.19,0,0,1-3.19-3.19h0a3.19,3.19,0,0,1,3.19-3.19h17.59a3.19,3.19,0,0,1,3.19,3.19h0A3.19,3.19,0,0,1,182.48,168.34Z" style="fill:#e0e0e0"></path><path d="M177.21,220H164.89a3.19,3.19,0,0,1-3.19-3.19h0a3.18,3.18,0,0,1,3.19-3.19h12.32a3.18,3.18,0,0,1,3.19,3.19h0A3.19,3.19,0,0,1,177.21,220Z" style="fill:#e0e0e0"></path><path d="M199.11,185.54H164.89a3.19,3.19,0,0,1-3.19-3.19h0a3.19,3.19,0,0,1,3.19-3.19h34.22a3.19,3.19,0,0,1,3.19,3.19h0A3.19,3.19,0,0,1,199.11,185.54Z" style="fill:#e0e0e0"></path><path d="M193.11,202.74H164.89a3.18,3.18,0,0,1-3.19-3.19h0a3.19,3.19,0,0,1,3.19-3.19h28.22a3.19,3.19,0,0,1,3.19,3.19h0A3.19,3.19,0,0,1,193.11,202.74Z" style="fill:#e0e0e0"></path><path d="M235.51,115a3.24,3.24,0,1,1-3.24-3.24A3.24,3.24,0,0,1,235.51,115Z" style="fill:#455a64"></path><path d="M235.51,131.65a3.24,3.24,0,1,1-3.24-3.24A3.24,3.24,0,0,1,235.51,131.65Z" style="fill:#455a64"></path><path d="M235.51,149a3.24,3.24,0,1,1-3.24-3.24A3.24,3.24,0,0,1,235.51,149Z" style="fill:#455a64"></path><path d="M235.51,166.26a3.24,3.24,0,1,1-3.24-3.24A3.24,3.24,0,0,1,235.51,166.26Z" style="fill:#455a64"></path><path d="M235.51,183.56a3.24,3.24,0,1,1-3.24-3.24A3.24,3.24,0,0,1,235.51,183.56Z" style="fill:#455a64"></path><path d="M235.51,200.87a3.24,3.24,0,1,1-3.24-3.24A3.24,3.24,0,0,1,235.51,200.87Z" style="fill:#455a64"></path><path d="M235.51,218.17a3.24,3.24,0,1,1-3.24-3.24A3.24,3.24,0,0,1,235.51,218.17Z" style="fill:#455a64"></path><path d="M235.51,235.48a3.24,3.24,0,1,1-3.24-3.24A3.24,3.24,0,0,1,235.51,235.48Z" style="fill:#455a64"></path><path d="M235.51,252.78a3.24,3.24,0,1,1-3.24-3.24A3.24,3.24,0,0,1,235.51,252.78Z" style="fill:#455a64"></path><path d="M235.51,270.09a3.24,3.24,0,1,1-3.24-3.24A3.24,3.24,0,0,1,235.51,270.09Z" style="fill:#455a64"></path><path d="M235.51,287.4a3.24,3.24,0,1,1-3.24-3.25A3.25,3.25,0,0,1,235.51,287.4Z" style="fill:#455a64"></path><path d="M235.51,304.7a3.24,3.24,0,1,1-3.24-3.24A3.24,3.24,0,0,1,235.51,304.7Z" style="fill:#455a64"></path></g><g id="freepik--device-2--inject-27"><path d="M642.67,464.41l-114.28-.07a24.79,24.79,0,0,1-24.88-24.7l.05-284.19a24.81,24.81,0,0,1,24.91-24.69l114.28.07a24.79,24.79,0,0,1,24.88,24.7l0,284.19A24.81,24.81,0,0,1,642.67,464.41Z" style="fill:#263238"></path><path d="M642.38,141l-22.16,0a5.48,5.48,0,0,0-5.38,5.58v4a5.48,5.48,0,0,1-5.38,5.57l-43.19,0a5.5,5.5,0,0,1-5.38-5.59v-4a5.5,5.5,0,0,0-5.38-5.59H528.32a17.36,17.36,0,0,0-17.44,17.29l-.06,277.39a17.37,17.37,0,0,0,17.43,17.3l114,.06a17.37,17.37,0,0,0,17.45-17.29l0-277.39A17.36,17.36,0,0,0,642.38,141Z" style="fill:#fff"></path><path d="M511,182.84h40.68a0,0,0,0,1,0,0V453.13a0,0,0,0,1,0,0H529.05A18.1,18.1,0,0,1,511,435V182.84A0,0,0,0,1,511,182.84Z" style="fill:#ebebeb"></path><path d="M594.42,201.71H575.05a2.16,2.16,0,0,1-2.11-2.21h0a2.16,2.16,0,0,1,2.11-2.21h19.37a2.16,2.16,0,0,1,2.1,2.21h0A2.16,2.16,0,0,1,594.42,201.71Z" style="fill:#263238"></path><path d="M595,213.25H575.65a2.16,2.16,0,0,1-2.1-2.21h0a2.16,2.16,0,0,1,2.1-2.21H595a2.16,2.16,0,0,1,2.1,2.21h0A2.16,2.16,0,0,1,595,213.25Z" style="fill:#e0e0e0"></path><path d="M595.26,226.45H575.88a2.16,2.16,0,0,1-2.1-2.21h0a2.16,2.16,0,0,1,2.1-2.21h19.38a2.16,2.16,0,0,1,2.1,2.21h0A2.16,2.16,0,0,1,595.26,226.45Z" style="fill:#00B2FF"></path><path d="M625.54,236.46H606.16a2.16,2.16,0,0,1-2.1-2.21h0a2.16,2.16,0,0,1,2.1-2.21h19.38a2.16,2.16,0,0,1,2.1,2.21h0A2.16,2.16,0,0,1,625.54,236.46Z" style="fill:#e0e0e0"></path><path d="M590.29,249.59H579.18a2.16,2.16,0,0,1-2.1-2.22h0a2.16,2.16,0,0,1,2.1-2.21h11.11a2.16,2.16,0,0,1,2.1,2.21h0A2.16,2.16,0,0,1,590.29,249.59Z" style="fill:#263238"></path><path d="M590.29,261.58H579.18a2.16,2.16,0,0,1-2.1-2.22h0a2.16,2.16,0,0,1,2.1-2.21h11.11a2.16,2.16,0,0,1,2.1,2.21h0A2.16,2.16,0,0,1,590.29,261.58Z" style="fill:#263238"></path><path d="M623.31,261.58H602.94a2.17,2.17,0,0,1-2.11-2.22h0a2.17,2.17,0,0,1,2.11-2.21h20.37a2.16,2.16,0,0,1,2.1,2.21h0A2.16,2.16,0,0,1,623.31,261.58Z" style="fill:#e0e0e0"></path><path d="M599.53,275.71H579.16a2.17,2.17,0,0,1-2.11-2.21h0a2.17,2.17,0,0,1,2.11-2.21h20.37a2.16,2.16,0,0,1,2.1,2.21h0A2.16,2.16,0,0,1,599.53,275.71Z" style="fill:#00B2FF"></path><rect x="586.2" y="281.24" width="16.86" height="4.42" rx="2.15" style="fill:#00B2FF"></rect><path d="M593.4,305H580.74a2.16,2.16,0,0,1-2.1-2.21h0a2.16,2.16,0,0,1,2.1-2.21H593.4a2.16,2.16,0,0,1,2.1,2.21h0A2.16,2.16,0,0,1,593.4,305Z" style="fill:#00B2FF"></path><path d="M593.4,330.22H580.74a2.16,2.16,0,0,1-2.1-2.21h0a2.16,2.16,0,0,1,2.1-2.21H593.4a2.16,2.16,0,0,1,2.1,2.21h0A2.16,2.16,0,0,1,593.4,330.22Z" style="fill:#00B2FF"></path><path d="M624.52,330.22h-22.2a2.16,2.16,0,0,1-2.1-2.21h0a2.16,2.16,0,0,1,2.1-2.21h22.2a2.16,2.16,0,0,1,2.1,2.21h0A2.16,2.16,0,0,1,624.52,330.22Z" style="fill:#455a64"></path><path d="M652.66,305.52H630.47a2.16,2.16,0,0,1-2.1-2.21h0a2.16,2.16,0,0,1,2.1-2.21h22.19a2.16,2.16,0,0,1,2.11,2.21h0A2.16,2.16,0,0,1,652.66,305.52Z" style="fill:#455a64"></path><path d="M626,314.93H603.81a2.16,2.16,0,0,1-2.11-2.21h0a2.16,2.16,0,0,1,2.11-2.21H626a2.16,2.16,0,0,1,2.1,2.21h0A2.16,2.16,0,0,1,626,314.93Z" style="fill:#455a64"></path><path d="M640.05,330.22h-3.2a2.16,2.16,0,0,1-2.1-2.21h0a2.16,2.16,0,0,1,2.1-2.21h3.2a2.16,2.16,0,0,1,2.1,2.21h0A2.16,2.16,0,0,1,640.05,330.22Z" style="fill:#e0e0e0"></path><path d="M623.19,305H604.43a2.16,2.16,0,0,1-2.1-2.21h0a2.16,2.16,0,0,1,2.1-2.21h18.76a2.16,2.16,0,0,1,2.1,2.21h0A2.16,2.16,0,0,1,623.19,305Z" style="fill:#e0e0e0"></path><rect x="608.57" y="281.24" width="20.04" height="4.42" rx="2.15" style="fill:#455a64"></rect><rect x="634.19" y="281.24" width="8.14" height="4.42" rx="2.15" style="fill:#e0e0e0"></rect><path d="M613.33,275.71h-4.54a2.16,2.16,0,0,1-2.1-2.21h0a2.16,2.16,0,0,1,2.1-2.21h4.54a2.16,2.16,0,0,1,2.1,2.21h0A2.16,2.16,0,0,1,613.33,275.71Z" style="fill:#263238"></path><path d="M651.79,275.71h-28.9a2.17,2.17,0,0,1-2.11-2.21h0a2.17,2.17,0,0,1,2.11-2.21h28.9a2.16,2.16,0,0,1,2.1,2.21h0A2.16,2.16,0,0,1,651.79,275.71Z" style="fill:#e0e0e0"></path><path d="M623.58,201.71H604.2a2.16,2.16,0,0,1-2.1-2.21h0a2.16,2.16,0,0,1,2.1-2.21h19.38a2.16,2.16,0,0,1,2.1,2.21h0A2.16,2.16,0,0,1,623.58,201.71Z" style="fill:#455a64"></path><path d="M647.85,213.25H603.51a2.16,2.16,0,0,1-2.1-2.21h0a2.16,2.16,0,0,1,2.1-2.21h44.34A2.16,2.16,0,0,1,650,211h0A2.16,2.16,0,0,1,647.85,213.25Z" style="fill:#263238"></path><path d="M648.7,226.36H605.28a2.16,2.16,0,0,1-2.1-2.21h0a2.16,2.16,0,0,1,2.1-2.21H648.7a2.16,2.16,0,0,1,2.1,2.21h0A2.16,2.16,0,0,1,648.7,226.36Z" style="fill:#e0e0e0"></path><path d="M644.76,249.59H601.34a2.16,2.16,0,0,1-2.1-2.22h0a2.16,2.16,0,0,1,2.1-2.21h43.42a2.16,2.16,0,0,1,2.1,2.21h0A2.16,2.16,0,0,1,644.76,249.59Z" style="fill:#455a64"></path><path d="M590.29,417.68H579.18a2.16,2.16,0,0,1-2.1-2.21h0a2.16,2.16,0,0,1,2.1-2.21h11.11a2.16,2.16,0,0,1,2.1,2.21h0A2.16,2.16,0,0,1,590.29,417.68Z" style="fill:#263238"></path><path d="M590.29,429.67H579.18a2.16,2.16,0,0,1-2.1-2.21h0a2.16,2.16,0,0,1,2.1-2.21h11.11a2.16,2.16,0,0,1,2.1,2.21h0A2.16,2.16,0,0,1,590.29,429.67Z" style="fill:#263238"></path><path d="M644.76,417.68H601.34a2.16,2.16,0,0,1-2.1-2.21h0a2.16,2.16,0,0,1,2.1-2.21h43.42a2.16,2.16,0,0,1,2.1,2.21h0A2.16,2.16,0,0,1,644.76,417.68Z" style="fill:#455a64"></path><path d="M534.73,240.65h-11.6a2.16,2.16,0,0,1-2.1-2.21h0a2.16,2.16,0,0,1,2.1-2.21h11.6a2.16,2.16,0,0,1,2.1,2.21h0A2.16,2.16,0,0,1,534.73,240.65Z" style="fill:#e0e0e0"></path><path d="M534.73,253h-11.6a2.16,2.16,0,0,1-2.1-2.21h0a2.16,2.16,0,0,1,2.1-2.21h11.6a2.16,2.16,0,0,1,2.1,2.21h0A2.16,2.16,0,0,1,534.73,253Z" style="fill:#e0e0e0"></path><path d="M534.73,265.27h-11.6a2.16,2.16,0,0,1-2.1-2.22h0a2.16,2.16,0,0,1,2.1-2.21h11.6a2.16,2.16,0,0,1,2.1,2.21h0A2.16,2.16,0,0,1,534.73,265.27Z" style="fill:#e0e0e0"></path><path d="M534.73,228.35h-11.6a2.17,2.17,0,0,1-2.1-2.22h0a2.16,2.16,0,0,1,2.1-2.21h11.6a2.16,2.16,0,0,1,2.1,2.21h0A2.17,2.17,0,0,1,534.73,228.35Z" style="fill:#e0e0e0"></path><path d="M534.73,216h-11.6a2.16,2.16,0,0,1-2.1-2.21h0a2.17,2.17,0,0,1,2.1-2.22h11.6a2.17,2.17,0,0,1,2.1,2.22h0A2.16,2.16,0,0,1,534.73,216Z" style="fill:#e0e0e0"></path><path d="M534.73,203.73h-11.6a2.16,2.16,0,0,1-2.1-2.21h0a2.16,2.16,0,0,1,2.1-2.21h11.6a2.16,2.16,0,0,1,2.1,2.21h0A2.16,2.16,0,0,1,534.73,203.73Z" style="fill:#e0e0e0"></path><path d="M531.26,277.57h-8.13a2.16,2.16,0,0,1-2.1-2.21h0a2.16,2.16,0,0,1,2.1-2.21h8.13a2.16,2.16,0,0,1,2.1,2.21h0A2.16,2.16,0,0,1,531.26,277.57Z" style="fill:#e0e0e0"></path><path d="M563.47,199.5a2.17,2.17,0,1,1-2.17-2.25A2.2,2.2,0,0,1,563.47,199.5Z" style="fill:#455a64"></path><path d="M563.47,211a2.17,2.17,0,1,1-2.17-2.25A2.21,2.21,0,0,1,563.47,211Z" style="fill:#455a64"></path><path d="M563.47,223a2.17,2.17,0,1,1-2.17-2.25A2.21,2.21,0,0,1,563.47,223Z" style="fill:#455a64"></path><path d="M563.47,235a2.17,2.17,0,1,1-2.17-2.25A2.21,2.21,0,0,1,563.47,235Z" style="fill:#455a64"></path><path d="M563.47,247a2.17,2.17,0,1,1-2.17-2.25A2.21,2.21,0,0,1,563.47,247Z" style="fill:#455a64"></path><path d="M563.47,259a2.17,2.17,0,1,1-2.17-2.25A2.2,2.2,0,0,1,563.47,259Z" style="fill:#455a64"></path><path d="M563.47,271a2.17,2.17,0,1,1-2.17-2.25A2.2,2.2,0,0,1,563.47,271Z" style="fill:#455a64"></path><path d="M563.47,283a2.17,2.17,0,1,1-2.17-2.25A2.2,2.2,0,0,1,563.47,283Z" style="fill:#455a64"></path><path d="M563.47,295a2.17,2.17,0,1,1-2.17-2.25A2.2,2.2,0,0,1,563.47,295Z" style="fill:#455a64"></path><path d="M563.47,307a2.17,2.17,0,1,1-2.17-2.24A2.21,2.21,0,0,1,563.47,307Z" style="fill:#455a64"></path><path d="M563.47,319a2.17,2.17,0,1,1-2.17-2.24A2.21,2.21,0,0,1,563.47,319Z" style="fill:#455a64"></path><path d="M563.47,331a2.17,2.17,0,1,1-2.17-2.24A2.21,2.21,0,0,1,563.47,331Z" style="fill:#455a64"></path><path d="M599.53,347.34H579.16a2.17,2.17,0,0,1-2.11-2.21h0a2.17,2.17,0,0,1,2.11-2.21h20.37a2.16,2.16,0,0,1,2.1,2.21h0A2.16,2.16,0,0,1,599.53,347.34Z" style="fill:#00B2FF"></path><rect x="586.2" y="352.87" width="16.86" height="4.42" rx="2.15" style="fill:#00B2FF"></rect><path d="M593.4,376.67H580.74a2.16,2.16,0,0,1-2.1-2.21h0a2.16,2.16,0,0,1,2.1-2.21H593.4a2.16,2.16,0,0,1,2.1,2.21h0A2.16,2.16,0,0,1,593.4,376.67Z" style="fill:#00B2FF"></path><path d="M593.4,401.85H580.74a2.16,2.16,0,0,1-2.1-2.21h0a2.16,2.16,0,0,1,2.1-2.21H593.4a2.16,2.16,0,0,1,2.1,2.21h0A2.16,2.16,0,0,1,593.4,401.85Z" style="fill:#00B2FF"></path><path d="M624.52,401.85h-22.2a2.16,2.16,0,0,1-2.1-2.21h0a2.16,2.16,0,0,1,2.1-2.21h22.2a2.16,2.16,0,0,1,2.1,2.21h0A2.16,2.16,0,0,1,624.52,401.85Z" style="fill:#455a64"></path><path d="M652.66,377.15H630.47a2.16,2.16,0,0,1-2.1-2.21h0a2.16,2.16,0,0,1,2.1-2.21h22.19a2.16,2.16,0,0,1,2.11,2.21h0A2.16,2.16,0,0,1,652.66,377.15Z" style="fill:#455a64"></path><path d="M626,386.56H603.81a2.16,2.16,0,0,1-2.11-2.21h0a2.16,2.16,0,0,1,2.11-2.21H626a2.16,2.16,0,0,1,2.1,2.21h0A2.16,2.16,0,0,1,626,386.56Z" style="fill:#455a64"></path><path d="M640.05,401.85h-3.2a2.16,2.16,0,0,1-2.1-2.21h0a2.16,2.16,0,0,1,2.1-2.21h3.2a2.16,2.16,0,0,1,2.1,2.21h0A2.16,2.16,0,0,1,640.05,401.85Z" style="fill:#e0e0e0"></path><path d="M623.19,376.67H604.43a2.16,2.16,0,0,1-2.1-2.21h0a2.16,2.16,0,0,1,2.1-2.21h18.76a2.16,2.16,0,0,1,2.1,2.21h0A2.16,2.16,0,0,1,623.19,376.67Z" style="fill:#e0e0e0"></path><rect x="608.57" y="352.87" width="20.04" height="4.42" rx="2.15" style="fill:#455a64"></rect><rect x="634.19" y="352.87" width="8.14" height="4.42" rx="2.15" style="fill:#e0e0e0"></rect><path d="M613.33,347.34h-4.54a2.16,2.16,0,0,1-2.1-2.21h0a2.16,2.16,0,0,1,2.1-2.21h4.54a2.16,2.16,0,0,1,2.1,2.21h0A2.16,2.16,0,0,1,613.33,347.34Z" style="fill:#263238"></path><path d="M651.79,347.34h-28.9a2.17,2.17,0,0,1-2.11-2.21h0a2.17,2.17,0,0,1,2.11-2.21h28.9a2.16,2.16,0,0,1,2.1,2.21h0A2.16,2.16,0,0,1,651.79,347.34Z" style="fill:#e0e0e0"></path><path d="M563.47,342.67a2.17,2.17,0,1,1-2.17-2.25A2.2,2.2,0,0,1,563.47,342.67Z" style="fill:#455a64"></path><path d="M563.47,354.67a2.17,2.17,0,1,1-2.17-2.25A2.2,2.2,0,0,1,563.47,354.67Z" style="fill:#455a64"></path><path d="M563.47,366.67a2.17,2.17,0,1,1-2.17-2.25A2.2,2.2,0,0,1,563.47,366.67Z" style="fill:#455a64"></path><path d="M563.47,378.67a2.17,2.17,0,1,1-2.17-2.25A2.2,2.2,0,0,1,563.47,378.67Z" style="fill:#455a64"></path><path d="M563.47,390.66a2.17,2.17,0,1,1-2.17-2.24A2.21,2.21,0,0,1,563.47,390.66Z" style="fill:#455a64"></path><path d="M563.47,402.66a2.17,2.17,0,1,1-2.17-2.24A2.21,2.21,0,0,1,563.47,402.66Z" style="fill:#455a64"></path><path d="M563.47,415.47a2.17,2.17,0,1,1-2.17-2.25A2.21,2.21,0,0,1,563.47,415.47Z" style="fill:#455a64"></path><path d="M563.47,428.28A2.17,2.17,0,1,1,561.3,426,2.2,2.2,0,0,1,563.47,428.28Z" style="fill:#455a64"></path><path d="M642.38,141l-22.16,0a5.48,5.48,0,0,0-5.38,5.58v4a5.48,5.48,0,0,1-5.38,5.57l-43.19,0a5.5,5.5,0,0,1-5.38-5.59v-4a5.5,5.5,0,0,0-5.38-5.59H528.32a17.36,17.36,0,0,0-17.44,17.29v24.65H659.8V158.26A17.36,17.36,0,0,0,642.38,141Z" style="fill:#f5f5f5"></path><circle cx="520.8" cy="173.13" r="2.75" style="fill:#e0e0e0"></circle><path d="M532,173.12a2.75,2.75,0,1,1-2.75-2.74A2.75,2.75,0,0,1,532,173.12Z" style="fill:#e0e0e0"></path><path d="M540.51,173.12a2.75,2.75,0,1,1-2.75-2.74A2.75,2.75,0,0,1,540.51,173.12Z" style="fill:#e0e0e0"></path><path d="M586.28,163.57a6.78,6.78,0,0,1,1.75-.76l.36-1.74,2.94,0,.42,1.72a7.09,7.09,0,0,1,1.78.7l1.48-1,2.11,2L596.2,166a7,7,0,0,1,.76,1.76l1.74.36,0,2.93-1.72.42a7.17,7.17,0,0,1-.7,1.78l1,1.48-2,2.11-1.51-.91a7.81,7.81,0,0,1-1.76.76l-.36,1.73-2.93.05-.42-1.72a6.8,6.8,0,0,1-1.78-.7L585,177l-2.12-2,.92-1.52a7.14,7.14,0,0,1-.76-1.75l-1.73-.36-.06-2.94L583,168a7.09,7.09,0,0,1,.7-1.78l-1-1.48,2-2.11,1.52.92Zm1.56,3.9a3.15,3.15,0,1,0,4.45-.07A3.14,3.14,0,0,0,587.84,167.47Z" style="fill:#e0e0e0"></path></g><g id="freepik--Gears--inject-27"><rect x="73.82" y="125.77" width="93.66" height="93.66" rx="9.87" style="fill:#00B2FF"></rect><path d="M103.57,160.83a21.59,21.59,0,0,1,5.25-2.28l1.08-5.19,8.77-.16,1.26,5.16a21.63,21.63,0,0,1,5.33,2.09l4.43-2.91,6.32,6.1-2.75,4.53a21.76,21.76,0,0,1,2.28,5.25l5.19,1.08.15,8.78-5.15,1.26a21.41,21.41,0,0,1-2.09,5.32l2.9,4.44-6.09,6.31-4.53-2.75a21.76,21.76,0,0,1-5.25,2.28l-1.08,5.2-8.78.15-1.26-5.15a21.44,21.44,0,0,1-5.32-2.1l-4.44,2.91-6.31-6.1,2.75-4.53A20.85,20.85,0,0,1,94,185.27l-5.2-1.08-.15-8.77,5.15-1.27a21.21,21.21,0,0,1,2.1-5.32l-2.91-4.43L99,158.08l4.54,2.75Zm4.68,11.69a9.41,9.41,0,1,0,13.31-.23A9.41,9.41,0,0,0,108.25,172.52Z" style="fill:#fff"></path><path d="M136.22,144.28a8.65,8.65,0,0,1,1.7-1.45l-.19-2.06,3.26-1.06,1.06,1.78a8.32,8.32,0,0,1,2.22.17l1.33-1.59,3.05,1.56-.51,2a8.33,8.33,0,0,1,1.45,1.7l2.06-.19,1.06,3.26-1.78,1.06a8.4,8.4,0,0,1-.17,2.23l1.59,1.32-1.56,3.05-2-.51a8.33,8.33,0,0,1-1.7,1.45l.19,2.06L144,160.12,143,158.34a8.32,8.32,0,0,1-2.22-.17l-1.33,1.59-3-1.55.51-2a8.37,8.37,0,0,1-1.45-1.7l-2.06.19-1.06-3.26,1.78-1.06a8.35,8.35,0,0,1,.17-2.22l-1.59-1.33,1.56-3,2,.51Zm3.08,3.83a3.68,3.68,0,1,0,4.94-1.61A3.67,3.67,0,0,0,139.3,148.11Z" style="fill:#fff"></path></g><g id="freepik--Arrow--inject-27"><polygon points="555.68 95.8 580.68 129.81 607.61 95.75 555.68 95.8" style="fill:#00B2FF"></polygon><path d="M594.47,101.55H568.81V64.88c0-7.64-2.73-10.21-3.63-11-3.85-3.62-11.15-4.55-16.7-4.21-.32,0-.74,0-1.26,0h-.06c-9,0-15.26,2.42-18.5,7.19A17.14,17.14,0,0,0,525.93,65v-.21l-25.66.2A41.87,41.87,0,0,1,512.08,36.8c8.44-8.47,20.2-12.78,35-12.8,6.88-.41,23.79-.08,35.71,11.13,5.35,5,11.71,14.26,11.71,29.75Z" style="fill:#00B2FF"></path></g></svg>
